<svg width="22" height="22" viewBox="0 0 22 22" fill="none" xmlns="http://www.w3.org/2000/svg">
<path fill-rule="evenodd" clip-rule="evenodd" d="M0 11C0 17.0751 4.92487 22 11 22C17.0751 22 22 17.0751 22 11C22 4.92487 17.0751 0 11 0C4.92487 0 0 4.92487 0 11ZM20 11C20 15.9706 15.9706 20 11 20C6.02944 20 2 15.9706 2 11C2 6.02944 6.02944 2 11 2C15.9706 2 20 6.02944 20 11ZM6.5817 16.9386L7.42552 12.0187L3.85104 8.53448L8.79085 7.81668L11 3.34045L13.2092 7.81668L18.149 8.53448L14.5745 12.0187L15.4183 16.9386L11 14.6157L6.5817 16.9386ZM12.4255 11.3205L12.762 13.2826L11 12.3562L9.23796 13.2826L9.57448 11.3205L8.14896 9.93096L10.119 9.6447L11 7.85956L11.881 9.6447L13.851 9.93096L12.4255 11.3205Z" fill="black"/>
</svg>
