<svg width="20" height="20" viewBox="0 0 20 20" fill="none" xmlns="http://www.w3.org/2000/svg">
<path d="M10 20C8.89605 19.9946 8.00092 19.1039 7.99 18H11.99C11.9924 18.2673 11.9418 18.5324 11.841 18.78C11.5785 19.3819 11.0427 19.8209 10.401 19.96H10.396H10.383H10.373H10.362H10.355C10.2381 19.9842 10.1193 19.9976 10 20ZM18 17H2V15L4 14V8.5C3.94732 7.08912 4.26594 5.68913 4.924 4.44C5.57904 3.28151 6.6987 2.45888 8 2.18V0H12V2.18C14.579 2.794 16 5.038 16 8.5V14L18 15V17ZM19.97 8H17.97C17.8769 5.4139 16.6337 3.00451 14.58 1.43L16 0C17.1961 0.930478 18.1625 2.12311 18.825 3.486C19.51 4.89703 19.8996 6.43307 19.97 8ZM2 8H0C0.0703571 6.43307 0.459985 4.89702 1.145 3.486C1.80746 2.12311 2.77395 0.930478 3.97 0L5.39 1.43C3.33611 3.00432 2.09286 5.41382 2 8Z" fill="#2E3A59"/>
</svg>
