<svg width="21" height="18" viewBox="0 0 21 18" fill="none" xmlns="http://www.w3.org/2000/svg">
<path d="M9.99997 18H9.94897C9.8 17.9888 9.65832 17.9311 9.54397 17.835C9.51264 17.8084 9.48385 17.7789 9.45797 17.747L0.167968 6.673C0.0955281 6.59022 0.044382 6.49102 0.0189678 6.384C0.0189678 6.371 0.0129678 6.358 0.00996779 6.345C-0.0183616 6.17748 0.0173335 6.00543 0.109968 5.863L0.128968 5.835L3.75897 0.7C3.77197 0.68 3.78497 0.662 3.79997 0.646C3.90615 0.519817 4.05348 0.435176 4.21597 0.407C4.24378 0.402761 4.27184 0.400422 4.29997 0.4L9.94997 0H9.99997H10.049L15.7 0.4C15.7312 0.40177 15.7623 0.40578 15.793 0.412C15.9713 0.445191 16.1297 0.54629 16.235 0.694L19.872 5.838C19.8795 5.84797 19.8865 5.85831 19.893 5.869C19.9762 5.99649 20.0139 6.14838 20 6.3C19.9957 6.33886 19.9884 6.37732 19.978 6.415C19.9506 6.51087 19.9021 6.59938 19.836 6.674L10.543 17.746C10.5275 17.7654 10.5108 17.7838 10.493 17.801C10.4346 17.8577 10.3669 17.9041 10.293 17.938C10.2323 17.9654 10.1679 17.9839 10.102 17.993C10.0682 17.9977 10.0341 18 9.99997 18ZM5.94597 6.911L9.99997 15.663L14.054 6.911H5.94597ZM15.586 6.911L12.824 12.874L17.824 6.911H15.586ZM2.17297 6.911L7.17297 12.874L4.41397 6.911H2.17297ZM16.168 2.994L15.908 5.545H17.97L16.168 2.994ZM9.99997 1.869L6.87197 5.545H13.128L9.99997 1.869ZM3.83197 2.994L2.02997 5.545H4.09197L3.83197 2.994ZM11.477 1.471L14.551 5.084L14.9 1.711L11.477 1.471ZM8.52097 1.471L5.09997 1.711L5.44497 5.084L8.52097 1.471Z" fill="#2E3A59"/>
</svg>
